<svg width="55" height="55" viewBox="0 0 51 46" fill="none" xmlns="http://www.w3.org/2000/svg"><g filter="url('#filter0_d_0_1')"><circle cx="25.5" cy="23.5" r="23.5" fill="#191919"/></g><g clip-path="url('#clip0_0_1')"><path d="M39.688 32.71c-.345-.446-.964-.687-1.522-.518a16.31 16.31 0 0 1-2.348.522c-.638.076-1.279.116-1.921.117a16.579 16.579 0 0 1-1.941-.12 15.992 15.992 0 0 1-3.683-1.002 16.114 16.114 0 0 1-3.218-1.877 16.123 16.123 0 0 1-2.631-2.625 16.079 16.079 0 0 1-1.88-3.213 15.91 15.91 0 0 1-1.003-3.674c-.156-1.292-.155-2.6.001-3.892.19-1.266.529-2.506 1.014-3.69.394-.895.867-1.75 1.416-2.56l.146-.345.052-.384c0-.322-.116-.625-.311-.876-.344-.445-.966-.69-1.523-.519-1.06.324-2.094.751-3.075 1.264-.975.51-1.875 1.128-2.74 1.807a17.087 17.087 0 0 0-4.079 4.659 16.902 16.902 0 0 0-2.184 5.919 17.986 17.986 0 0 0-.25 3.434c.032 1.1.17 2.203.404 3.277a16.98 16.98 0 0 0 2.312 5.565c.567.88 1.216 1.716 1.927 2.485.714.772 1.508 1.452 2.344 2.09 1.595 1.214 3.433 2.124 5.351 2.707 2.037.619 4.226.858 6.348.685a17.69 17.69 0 0 0 6.858-1.985 17.062 17.062 0 0 0 5.13-4.162c.394-.477.771-.97 1.12-1.481l.146-.346.052-.385c0-.323-.116-.625-.312-.877Zm-8.69 5.275c-1.18.478-2.416.814-3.676 1.001-1.29.156-2.598.156-3.889 0a16.054 16.054 0 0 1-3.682-1.001 16.12 16.12 0 0 1-3.219-1.877 16.123 16.123 0 0 1-2.63-2.625 16.07 16.07 0 0 1-1.88-3.213 15.972 15.972 0 0 1-1.005-3.676 16.155 16.155 0 0 1 0-3.879c.187-1.263.525-2.5 1.007-3.681A15.993 15.993 0 0 1 13.9 15.83a16.157 16.157 0 0 1 2.625-2.622c.333-.25.676-.488 1.027-.712a.394.394 0 0 1-.013.034c-.506 1.379-.798 2.819-.942 4.28-.12 1.213-.099 2.438.058 3.647.155 1.193.391 2.36.786 3.5a17.73 17.73 0 0 0 3.498 5.976 17.08 17.08 0 0 0 5.227 3.981 17.744 17.744 0 0 0 7.731 1.811c.272 0 .543-.01.816-.023-.16.137-.32.27-.484.4-1 .75-2.085 1.383-3.23 1.883Z" fill="#E6E6E6"/></g><defs><clipPath id="clip0_0_1"><path fill="#fff" transform="translate(8 8)" d="M0 0h32v34H0z"/></clipPath><filter id="filter0_d_0_1" x="0" y="0" width="55" height="55" filterUnits="userSpaceOnUse" color-interpolation-filters="sRGB"><feFlood flood-opacity="0" result="BackgroundImageFix"/><feColorMatrix in="SourceAlpha" values="0 0 0 0 0 0 0 0 0 0 0 0 0 0 0 0 0 0 127 0" result="hardAlpha"/><feOffset dx="2" dy="4"/><feGaussianBlur stdDeviation="2"/><feComposite in2="hardAlpha" operator="out"/><feColorMatrix values="0 0 0 0 0.491667 0 0 0 0 0.487569 0 0 0 0 0.487569 0 0 0 0.25 0"/><feBlend in2="BackgroundImageFix" result="effect1_dropShadow_0_1"/><feBlend in="SourceGraphic" in2="effect1_dropShadow_0_1" result="shape"/></filter></defs></svg>