<svg width="55" height="55" viewBox="0 0 55 55" fill="none" xmlns="http://www.w3.org/2000/svg">
<g filter="url(#filter0_d_0_1)">
<circle cx="25.5" cy="23.5" r="23.5" fill="#191919"/>
</g>
<g clip-path="url(#clip0_0_1)">
<path d="M39.6885 32.7102C39.3432 32.2643 38.7239 32.0233 38.1661 32.192C37.397 32.4246 36.6122 32.5969 35.8178 32.7138C35.1804 32.7897 34.5393 32.8295 33.897 32.8307C33.2474 32.8295 32.5991 32.7885 31.9556 32.7114C30.6928 32.5246 29.4565 32.1896 28.2733 31.7087C27.1312 31.2098 26.0506 30.5796 25.0546 29.8324C24.0791 29.0612 23.1965 28.1803 22.4238 27.2066C21.6753 26.2124 21.0439 25.1339 20.544 23.9939C20.0635 22.8141 19.7267 21.5789 19.5407 20.3196C19.385 19.0277 19.3862 17.7202 19.542 16.4284C19.7315 15.1619 20.0708 13.9218 20.5561 12.7372C20.9497 11.8431 21.423 10.9875 21.9723 10.1789C22.0206 10.0632 22.0701 9.9487 22.1184 9.83302C22.1353 9.70528 22.1534 9.57633 22.1703 9.4486C22.1703 9.12684 22.0544 8.82437 21.8588 8.57251C21.5147 8.12783 20.8929 7.8832 20.3364 8.05432C19.2763 8.37849 18.2417 8.80509 17.2613 9.31845C16.2858 9.82819 15.3864 10.4464 14.5207 11.1249C12.892 12.4022 11.5036 14.0098 10.4424 15.7837C9.36063 17.5913 8.59639 19.623 8.25834 21.703C8.07362 22.8394 7.97221 23.9854 8.00722 25.1375C8.03982 26.2365 8.17866 27.3403 8.41167 28.4141C8.83665 30.3771 9.63469 32.2908 10.7237 33.9791C11.2911 34.8588 11.9395 35.6951 12.6506 36.464C13.3653 37.2364 14.1585 37.9161 14.9952 38.5536C16.5901 39.7683 18.4276 40.6781 20.346 41.2614C22.3828 41.8796 24.5716 42.1194 26.6941 41.9459C29.0979 41.7494 31.4196 41.0891 33.5517 39.9611C35.5003 38.9308 37.2763 37.4967 38.6816 35.7988C39.0764 35.3216 39.4531 34.8287 39.802 34.3177C39.8503 34.202 39.8998 34.0876 39.9481 33.9719C39.965 33.8441 39.9831 33.7152 40 33.5875C40 33.2645 39.8841 32.962 39.6885 32.7102ZM30.9982 37.9848C29.8175 38.4632 28.5824 38.7994 27.3219 38.9862C26.0313 39.1416 24.7238 39.1416 23.4331 38.9862C22.1703 38.7994 20.934 38.4644 19.7508 37.9848C18.6087 37.4859 17.5281 36.8556 16.5321 36.1085C15.5566 35.3372 14.674 34.4563 13.9014 33.4826C13.1528 32.4884 12.5214 31.4099 12.0216 30.2699C11.541 29.0889 11.2042 27.8549 11.0171 26.5944C10.8613 25.3062 10.8613 24.0035 11.0171 22.7153C11.2042 21.4524 11.5423 20.2159 12.024 19.0338C12.5226 17.8962 13.1528 16.8212 13.9001 15.8295C14.6716 14.8582 15.5518 13.9785 16.5249 13.2084C16.8581 12.9578 17.201 12.7204 17.5523 12.4962C17.5487 12.5071 17.5438 12.5191 17.539 12.53C17.0331 13.9086 16.741 15.3486 16.5973 16.8092C16.4778 18.0227 16.4983 19.2483 16.6553 20.457C16.8098 21.65 17.0464 22.8177 17.4412 23.9565C18.2055 26.1654 19.3886 28.1827 20.9388 29.9325C22.3912 31.5714 24.1962 32.95 26.1665 33.914C28.3288 34.9709 30.659 35.5794 33.0651 35.7036C33.3416 35.718 33.6193 35.7241 33.897 35.7253C34.1686 35.7253 34.4403 35.7156 34.7131 35.7024C34.5538 35.8385 34.3932 35.9723 34.229 36.1024C33.2281 36.852 32.144 37.4847 30.9982 37.9848Z" fill="#E6E6E6"/>
</g>
<defs>
<filter id="filter0_d_0_1" x="0" y="0" width="55" height="55" filterUnits="userSpaceOnUse" color-interpolation-filters="sRGB">
<feFlood flood-opacity="0" result="BackgroundImageFix"/>
<feColorMatrix in="SourceAlpha" type="matrix" values="0 0 0 0 0 0 0 0 0 0 0 0 0 0 0 0 0 0 127 0" result="hardAlpha"/>
<feOffset dx="2" dy="4"/>
<feGaussianBlur stdDeviation="2"/>
<feComposite in2="hardAlpha" operator="out"/>
<feColorMatrix type="matrix" values="0 0 0 0 0.491667 0 0 0 0 0.487569 0 0 0 0 0.487569 0 0 0 0.25 0"/>
<feBlend mode="normal" in2="BackgroundImageFix" result="effect1_dropShadow_0_1"/>
<feBlend mode="normal" in="SourceGraphic" in2="effect1_dropShadow_0_1" result="shape"/>
</filter>
<clipPath id="clip0_0_1">
<rect width="32" height="34" fill="white" transform="translate(8 8)"/>
</clipPath>
</defs>
</svg>

